<svg width="427" height="421" viewBox="0 0 427 421" fill="none" xmlns="http://www.w3.org/2000/svg">
<mask id="path-1-outside-1_118_126" maskUnits="userSpaceOnUse" x="0.356445" y="0.590332" width="427" height="420" fill="black">
<rect fill="white" x="0.356445" y="0.590332" width="427" height="420"/>
<path d="M233.467 411.801L230.037 412.327L225.984 412.59H216.007L211.33 412.327L201.976 411.275L193.558 409.697L185.763 408.119L178.28 406.015L171.109 403.911L164.874 402.07L158.014 399.702L148.661 396.546L141.178 393.916L132.448 390.76L125.588 388.392L119.664 386.025L111.558 382.869L103.452 379.713L90.98 374.452L83.1853 371.033L76.0142 368.14L68.8431 364.721L62.9192 361.564L57.9306 359.197L52.6302 356.041L48.2652 353.411L44.5237 350.78L40.7823 348.15L37.6644 345.783L33.2994 342.199L29.8698 338.681L26.1283 334.473L22.3869 329.213L18.0218 321.322L14.5922 312.379L12.7215 306.067L10.8507 299.491L9.60359 292.127L8.66823 285.814L8.35645 279.502V273.452V266.088L8.98002 260.301L9.60359 254.778L10.2272 250.043L12.0979 242.416L14.5922 234.525L16.4629 227.95L21.1397 215.588L24.8812 206.908L27.999 200.07L31.1169 193.231L35.1701 184.814L36.7291 181.658V181.132L35.1701 172.715L32.0523 153.778L30.1815 140.627L28.3108 127.476L27.0637 116.955L25.8165 108.275L25.1929 99.8586L24.8812 92.757L24.5694 83.8143L23.9458 73.0304L23.3222 65.9289L23.0104 58.0382V49.0955L22.6987 42.257L23.0104 35.4185L23.3222 30.158L23.634 23.3195L24.2576 17.533L24.8812 14.6398L25.1929 12.5356L26.7519 10.4315L28.9344 8.59033H29.558H30.8051L32.0523 9.11637L33.923 10.6945L38.288 15.1659L40.7823 18.0591L41.0941 19.1112L56.0599 40.1528L66.6606 55.408L71.6492 62.5096L77.885 71.4523L87.5504 84.0773L100.022 100.911L106.258 108.275L110.311 113.536L117.482 122.215L121.223 126.687L124.653 130.632L126.212 132.999L126.836 132.736L132.759 130.895L140.242 129.317L148.972 127.476L158.638 126.161L168.303 124.846L175.163 124.32L182.334 123.793L189.817 123.267L197.923 123.004L205.718 122.741H217.566L225.048 123.004H232.22L240.326 123.53L246.25 124.056L254.98 125.109L262.463 126.161L271.193 127.739L280.858 129.843L298.007 120.111L318.273 108.275L323.261 105.119L328.562 101.963L332.303 99.3325L336.98 96.1763L346.645 89.3377L385.307 58.0382L408.067 37.5226L409.003 36.4705L409.626 36.2075H410.25H411.185H412.432L413.368 36.7336L414.615 38.0487L415.862 41.2049L416.798 45.4132L417.421 50.1476L418.045 61.1945L418.356 72.2414L417.421 79.869V84.3403L416.798 88.5487L415.239 95.6502L413.68 103.015L412.121 109.064L410.25 115.903L408.379 122.478L406.509 128.265L403.702 135.366L398.714 147.991L395.596 155.356L392.166 163.247L389.672 169.033L386.554 176.398L384.372 181.395L384.06 182.71V183.762L384.372 186.655L385.619 190.601L390.296 201.122L394.661 212.431L398.402 223.478L401.832 235.577L403.391 242.679L404.95 249.78L405.885 256.619L407.132 263.721L408.067 270.296L408.379 274.767L409.003 277.924V280.291V293.179L408.691 296.598L408.379 300.28L407.756 304.489L406.509 310.275L404.95 315.273L403.079 320.007L400.273 325.267L396.843 330.265L390.919 337.366L382.189 345.783L371.277 354.726L366.6 357.882L364.105 359.46L359.741 362.353L355.375 365.247L354.128 365.773L353.505 366.299L352.258 366.825L333.55 376.82L319.208 383.395L306.113 388.392L288.653 394.179L276.182 398.65L270.569 400.754L264.334 402.859L255.292 406.278L252.486 407.067L249.368 408.119L246.562 409.171L243.444 409.96L240.95 410.486L237.208 411.275L233.467 411.801Z"/>
</mask>
<path d="M233.467 411.801L230.037 412.327L225.984 412.59H216.007L211.33 412.327L201.976 411.275L193.558 409.697L185.763 408.119L178.28 406.015L171.109 403.911L164.874 402.07L158.014 399.702L148.661 396.546L141.178 393.916L132.448 390.76L125.588 388.392L119.664 386.025L111.558 382.869L103.452 379.713L90.98 374.452L83.1853 371.033L76.0142 368.14L68.8431 364.721L62.9192 361.564L57.9306 359.197L52.6302 356.041L48.2652 353.411L44.5237 350.78L40.7823 348.15L37.6644 345.783L33.2994 342.199L29.8698 338.681L26.1283 334.473L22.3869 329.213L18.0218 321.322L14.5922 312.379L12.7215 306.067L10.8507 299.491L9.60359 292.127L8.66823 285.814L8.35645 279.502V273.452V266.088L8.98002 260.301L9.60359 254.778L10.2272 250.043L12.0979 242.416L14.5922 234.525L16.4629 227.95L21.1397 215.588L24.8812 206.908L27.999 200.07L31.1169 193.231L35.1701 184.814L36.7291 181.658V181.132L35.1701 172.715L32.0523 153.778L30.1815 140.627L28.3108 127.476L27.0637 116.955L25.8165 108.275L25.1929 99.8586L24.8812 92.757L24.5694 83.8143L23.9458 73.0304L23.3222 65.9289L23.0104 58.0382V49.0955L22.6987 42.257L23.0104 35.4185L23.3222 30.158L23.634 23.3195L24.2576 17.533L24.8812 14.6398L25.1929 12.5356L26.7519 10.4315L28.9344 8.59033H29.558H30.8051L32.0523 9.11637L33.923 10.6945L38.288 15.1659L40.7823 18.0591L41.0941 19.1112L56.0599 40.1528L66.6606 55.408L71.6492 62.5096L77.885 71.4523L87.5504 84.0773L100.022 100.911L106.258 108.275L110.311 113.536L117.482 122.215L121.223 126.687L124.653 130.632L126.212 132.999L126.836 132.736L132.759 130.895L140.242 129.317L148.972 127.476L158.638 126.161L168.303 124.846L175.163 124.32L182.334 123.793L189.817 123.267L197.923 123.004L205.718 122.741H217.566L225.048 123.004H232.22L240.326 123.53L246.25 124.056L254.98 125.109L262.463 126.161L271.193 127.739L280.858 129.843L298.007 120.111L318.273 108.275L323.261 105.119L328.562 101.963L332.303 99.3325L336.98 96.1763L346.645 89.3377L385.307 58.0382L408.067 37.5226L409.003 36.4705L409.626 36.2075H410.25H411.185H412.432L413.368 36.7336L414.615 38.0487L415.862 41.2049L416.798 45.4132L417.421 50.1476L418.045 61.1945L418.356 72.2414L417.421 79.869V84.3403L416.798 88.5487L415.239 95.6502L413.68 103.015L412.121 109.064L410.25 115.903L408.379 122.478L406.509 128.265L403.702 135.366L398.714 147.991L395.596 155.356L392.166 163.247L389.672 169.033L386.554 176.398L384.372 181.395L384.06 182.71V183.762L384.372 186.655L385.619 190.601L390.296 201.122L394.661 212.431L398.402 223.478L401.832 235.577L403.391 242.679L404.95 249.78L405.885 256.619L407.132 263.721L408.067 270.296L408.379 274.767L409.003 277.924V280.291V293.179L408.691 296.598L408.379 300.28L407.756 304.489L406.509 310.275L404.95 315.273L403.079 320.007L400.273 325.267L396.843 330.265L390.919 337.366L382.189 345.783L371.277 354.726L366.6 357.882L364.105 359.46L359.741 362.353L355.375 365.247L354.128 365.773L353.505 366.299L352.258 366.825L333.55 376.82L319.208 383.395L306.113 388.392L288.653 394.179L276.182 398.65L270.569 400.754L264.334 402.859L255.292 406.278L252.486 407.067L249.368 408.119L246.562 409.171L243.444 409.96L240.95 410.486L237.208 411.275L233.467 411.801Z" fill="black"/>
<path d="M233.467 411.801L230.037 412.327L225.984 412.59H216.007L211.33 412.327L201.976 411.275L193.558 409.697L185.763 408.119L178.28 406.015L171.109 403.911L164.874 402.07L158.014 399.702L148.661 396.546L141.178 393.916L132.448 390.76L125.588 388.392L119.664 386.025L111.558 382.869L103.452 379.713L90.98 374.452L83.1853 371.033L76.0142 368.14L68.8431 364.721L62.9192 361.564L57.9306 359.197L52.6302 356.041L48.2652 353.411L44.5237 350.78L40.7823 348.15L37.6644 345.783L33.2994 342.199L29.8698 338.681L26.1283 334.473L22.3869 329.213L18.0218 321.322L14.5922 312.379L12.7215 306.067L10.8507 299.491L9.60359 292.127L8.66823 285.814L8.35645 279.502V273.452V266.088L8.98002 260.301L9.60359 254.778L10.2272 250.043L12.0979 242.416L14.5922 234.525L16.4629 227.95L21.1397 215.588L24.8812 206.908L27.999 200.07L31.1169 193.231L35.1701 184.814L36.7291 181.658V181.132L35.1701 172.715L32.0523 153.778L30.1815 140.627L28.3108 127.476L27.0637 116.955L25.8165 108.275L25.1929 99.8586L24.8812 92.757L24.5694 83.8143L23.9458 73.0304L23.3222 65.9289L23.0104 58.0382V49.0955L22.6987 42.257L23.0104 35.4185L23.3222 30.158L23.634 23.3195L24.2576 17.533L24.8812 14.6398L25.1929 12.5356L26.7519 10.4315L28.9344 8.59033H29.558H30.8051L32.0523 9.11637L33.923 10.6945L38.288 15.1659L40.7823 18.0591L41.0941 19.1112L56.0599 40.1528L66.6606 55.408L71.6492 62.5096L77.885 71.4523L87.5504 84.0773L100.022 100.911L106.258 108.275L110.311 113.536L117.482 122.215L121.223 126.687L124.653 130.632L126.212 132.999L126.836 132.736L132.759 130.895L140.242 129.317L148.972 127.476L158.638 126.161L168.303 124.846L175.163 124.32L182.334 123.793L189.817 123.267L197.923 123.004L205.718 122.741H217.566L225.048 123.004H232.22L240.326 123.53L246.25 124.056L254.98 125.109L262.463 126.161L271.193 127.739L280.858 129.843L298.007 120.111L318.273 108.275L323.261 105.119L328.562 101.963L332.303 99.3325L336.98 96.1763L346.645 89.3377L385.307 58.0382L408.067 37.5226L409.003 36.4705L409.626 36.2075H410.25H411.185H412.432L413.368 36.7336L414.615 38.0487L415.862 41.2049L416.798 45.4132L417.421 50.1476L418.045 61.1945L418.356 72.2414L417.421 79.869V84.3403L416.798 88.5487L415.239 95.6502L413.68 103.015L412.121 109.064L410.25 115.903L408.379 122.478L406.509 128.265L403.702 135.366L398.714 147.991L395.596 155.356L392.166 163.247L389.672 169.033L386.554 176.398L384.372 181.395L384.06 182.71V183.762L384.372 186.655L385.619 190.601L390.296 201.122L394.661 212.431L398.402 223.478L401.832 235.577L403.391 242.679L404.95 249.78L405.885 256.619L407.132 263.721L408.067 270.296L408.379 274.767L409.003 277.924V280.291V293.179L408.691 296.598L408.379 300.28L407.756 304.489L406.509 310.275L404.95 315.273L403.079 320.007L400.273 325.267L396.843 330.265L390.919 337.366L382.189 345.783L371.277 354.726L366.6 357.882L364.105 359.46L359.741 362.353L355.375 365.247L354.128 365.773L353.505 366.299L352.258 366.825L333.55 376.82L319.208 383.395L306.113 388.392L288.653 394.179L276.182 398.65L270.569 400.754L264.334 402.859L255.292 406.278L252.486 407.067L249.368 408.119L246.562 409.171L243.444 409.96L240.95 410.486L237.208 411.275L233.467 411.801Z" stroke="#F5F5F5" stroke-width="16" mask="url(#path-1-outside-1_118_126)"/>
<path d="M249.233 239.153C249.168 239.806 248.841 240.361 248.253 240.819C247.73 241.276 247.436 241.864 247.371 242.583C246.848 242.779 246.293 242.975 245.705 243.171C245.182 243.367 244.627 243.563 244.039 243.759C240.315 245.131 236.134 246.568 231.495 248.071C226.922 249.573 222.054 250.815 216.893 251.795C211.732 252.775 206.44 253.167 201.017 252.971C197.685 252.84 194.386 252.448 191.119 251.795C187.918 251.076 185.337 249.867 183.377 248.169C182.658 246.797 182.364 245.131 182.495 243.171C182.691 241.211 183.083 239.153 183.671 236.997C184.324 234.841 184.945 232.815 185.533 230.921C185.729 230.333 185.925 229.777 186.121 229.255C186.317 228.667 186.48 228.144 186.611 227.687C187.134 225.857 187.624 224.061 188.081 222.297C188.538 220.467 189.094 218.703 189.747 217.005C190.335 215.437 191.021 213.869 191.805 212.301C192.654 210.733 193.504 209.197 194.353 207.695C195.072 206.257 195.856 204.787 196.705 203.285C197.554 201.717 198.436 200.247 199.351 198.875C200.723 196.849 202.16 195.02 203.663 193.387C205.166 191.753 206.832 190.316 208.661 189.075C209.184 188.748 210.033 188.617 211.209 188.683C212.385 188.748 213.594 188.911 214.835 189.173C216.142 189.434 217.122 189.761 217.775 190.153C219.082 190.806 220.323 191.982 221.499 193.681C222.675 195.379 223.753 197.209 224.733 199.169C225.778 201.129 226.66 202.925 227.379 204.559C228.228 206.323 229.012 208.021 229.731 209.655C230.45 211.223 231.07 212.987 231.593 214.947C231.658 215.077 231.626 215.208 231.495 215.339C231.299 215.404 231.266 215.535 231.397 215.731C230.809 216.449 230.09 217.135 229.241 217.789C228.392 218.442 227.575 218.638 226.791 218.377C226.138 218.115 225.582 217.397 225.125 216.221C224.668 214.979 224.178 213.836 223.655 212.791C222.675 210.765 221.728 208.805 220.813 206.911C219.898 205.016 218.788 203.154 217.481 201.325C216.893 200.541 216.174 199.659 215.325 198.679C214.476 197.633 213.79 197.078 213.267 197.013C212.287 196.947 211.47 197.307 210.817 198.091C210.229 198.809 209.641 199.626 209.053 200.541C208.661 201.259 208.204 201.945 207.681 202.599C207.224 203.252 206.668 203.709 206.015 203.971C204.055 208.087 202.03 212.203 199.939 216.319C197.848 220.369 195.954 224.649 194.255 229.157C192.622 233.599 191.413 238.532 190.629 243.955C192.589 245.261 195.006 246.143 197.881 246.601C200.821 246.993 203.761 247.123 206.701 246.993C209.706 246.862 212.254 246.633 214.345 246.307C218.461 245.653 222.512 244.804 226.497 243.759C230.548 242.713 234.468 241.733 238.257 240.819C242.046 239.839 245.705 239.283 249.233 239.153Z" fill="#F5F5F5"/>
<path d="M270.883 334.21H265.27L266.206 330.791L267.765 324.478L269.947 317.114L271.974 310.801L275.559 302.384L278.989 295.283L282.107 290.811L285.537 286.077L285.848 286.34L286.472 287.655L287.407 293.705L287.719 295.283L288.343 298.176L289.278 300.28L289.59 301.595L289.902 303.436L290.525 305.541L291.149 307.645L292.396 311.327L293.331 314.22L293.955 316.324L294.578 318.166L297.073 323.952L300.502 330.791L300.191 331.054L297.385 331.58L291.772 332.369L285.225 333.158L278.054 333.684L270.883 334.21Z" fill="#F5F5F5"/>
<path d="M335.111 267.403L327.004 267.666H326.693H326.381L327.004 270.296L327.94 274.241L329.187 279.239L330.434 284.762L331.681 288.97L332.617 295.546L333.24 300.28V308.697L332.928 322.637H333.552L340.099 318.429L345.4 314.22L350.7 309.223L355.689 303.699L359.118 298.965L362.86 292.39L366.29 285.551L368.16 280.554L369.407 277.134L364.731 275.293L358.183 272.663L350.7 270.296L342.282 268.192L335.111 267.403Z" fill="#F5F5F5"/>
<path d="M363.795 173.504L362.236 174.03H360.054L357.248 172.452L354.13 169.822L352.259 167.192L351.324 165.087V161.931L351.947 160.353L367.965 142.468L381.879 126.423L386.556 120.637L391.232 115.64H391.856L392.48 115.903V120.9L391.856 122.215L389.985 127.212L388.115 132.736L384.997 139.837L380.632 149.306L378.449 153.778L376.578 156.934L374.708 160.09L371.902 164.824L369.875 167.718L368.16 169.822L366.601 171.663L364.731 172.978L363.795 173.504Z" fill="#F5F5F5"/>
<path d="M58.8674 161.931H54.5024L53.567 161.668L52.3199 160.616L51.3845 159.038L50.1374 156.671L48.5785 152.199L47.3313 148.254L46.7077 144.572L46.0842 141.679L45.1488 136.418L44.5252 130.106L43.9017 126.423L43.5899 119.322L43.2781 110.905L43.5899 107.223L44.2134 104.33L44.5252 103.278H45.4606L46.0842 103.804L47.3313 108.012L48.8902 113.009L50.4492 118.27L52.6317 124.056L54.5024 128.791L55.7496 132.473L57.3085 136.418L58.5556 139.048L60.1146 142.994L61.3617 145.624L62.2971 147.991L63.2325 150.095L64.1678 152.726L64.7914 154.83L65.1032 155.882L64.4796 157.46L62.6089 159.564L58.8674 161.931Z" fill="#F5F5F5"/>
<path d="M135.567 333.684L133.073 333.421L135.879 325.267L137.75 318.429L139.932 310.275L141.179 303.962L142.426 297.913L142.855 293.968L143.362 289.233L143.674 287.655H143.985L148.35 292.39L150.533 295.283L153.027 299.228L155.521 303.436L158.639 309.749L161.134 315.535L163.004 320.796L164.875 325.267L166.122 329.476L167.058 332.369L167.681 333.947L167.993 334.736H153.027L145.856 334.473L139.62 333.947L135.567 333.684Z" fill="#F5F5F5"/>
<path d="M98.7762 319.744L99.3998 322.9H98.1526L97.529 322.374L86.9283 315.798L78.51 308.697L73.2096 303.436L69.4682 298.702L66.5647 293.968L63.5442 288.444L61.3617 283.184L60.4264 280.554L60.1146 279.239L62.6089 277.66L70.7153 274.241L78.1982 271.611L85.3693 269.507L92.2286 268.192L98.1526 267.403L100.335 267.14L100.959 267.666L101.582 268.192L102.206 268.455L101.894 269.77L100.647 273.715L98.7762 283.71L98.1526 290.022L97.8408 298.965V308.96L98.1526 315.798L98.7762 319.744Z" fill="#F5F5F5"/>
<path d="M270.883 334.21H265.27L266.206 330.791L267.765 324.478L269.947 317.114L271.974 310.801L275.559 302.384L278.989 295.283L282.107 290.811L285.537 286.077L285.848 286.34L286.472 287.655L287.407 293.705L287.719 295.283L288.343 298.176L289.278 300.28L289.59 301.595L289.902 303.436L290.525 305.541L291.149 307.645L292.396 311.327L293.331 314.22L293.955 316.324L294.578 318.166L297.073 323.952L300.502 330.791L300.191 331.054L297.385 331.58L291.772 332.369L285.225 333.158L278.054 333.684L270.883 334.21Z" stroke="#F5F5F5" stroke-width="0.402004"/>
<path d="M335.111 267.403L327.004 267.666H326.693H326.381L327.004 270.296L327.94 274.241L329.187 279.239L330.434 284.762L331.681 288.97L332.617 295.546L333.24 300.28V308.697L332.928 322.637H333.552L340.099 318.429L345.4 314.22L350.7 309.223L355.689 303.699L359.118 298.965L362.86 292.39L366.29 285.551L368.16 280.554L369.407 277.134L364.731 275.293L358.183 272.663L350.7 270.296L342.282 268.192L335.111 267.403Z" stroke="#F5F5F5" stroke-width="0.402004"/>
<path d="M363.795 173.504L362.236 174.03H360.054L357.248 172.452L354.13 169.822L352.259 167.192L351.324 165.087V161.931L351.947 160.353L367.965 142.468L381.879 126.423L386.556 120.637L391.232 115.64H391.856L392.48 115.903V120.9L391.856 122.215L389.985 127.212L388.115 132.736L384.997 139.837L380.632 149.306L378.449 153.778L376.578 156.934L374.708 160.09L371.902 164.824L369.875 167.718L368.16 169.822L366.601 171.663L364.731 172.978L363.795 173.504Z" stroke="#F5F5F5" stroke-width="0.402004"/>
<path d="M58.8674 161.931H54.5024L53.567 161.668L52.3199 160.616L51.3845 159.038L50.1374 156.671L48.5785 152.199L47.3313 148.254L46.7077 144.572L46.0842 141.679L45.1488 136.418L44.5252 130.106L43.9017 126.423L43.5899 119.322L43.2781 110.905L43.5899 107.223L44.2134 104.33L44.5252 103.278H45.4606L46.0842 103.804L47.3313 108.012L48.8902 113.009L50.4492 118.27L52.6317 124.056L54.5024 128.791L55.7496 132.473L57.3085 136.418L58.5556 139.048L60.1146 142.994L61.3617 145.624L62.2971 147.991L63.2325 150.095L64.1678 152.726L64.7914 154.83L65.1032 155.882L64.4796 157.46L62.6089 159.564L58.8674 161.931Z" stroke="#F5F5F5" stroke-width="0.402004"/>
<path d="M135.567 333.684L133.073 333.421L135.879 325.267L137.75 318.429L139.932 310.275L141.179 303.962L142.426 297.913L142.855 293.968L143.362 289.233L143.674 287.655H143.985L148.35 292.39L150.533 295.283L153.027 299.228L155.521 303.436L158.639 309.749L161.134 315.535L163.004 320.796L164.875 325.267L166.122 329.476L167.058 332.369L167.681 333.947L167.993 334.736H153.027L145.856 334.473L139.62 333.947L135.567 333.684Z" stroke="#F5F5F5" stroke-width="0.402004"/>
<path d="M98.7762 319.744L99.3998 322.9H98.1526L97.529 322.374L86.9283 315.798L78.51 308.697L73.2096 303.436L69.4682 298.702L66.5647 293.968L63.5442 288.444L61.3617 283.184L60.4264 280.554L60.1146 279.239L62.6089 277.66L70.7153 274.241L78.1982 271.611L85.3693 269.507L92.2286 268.192L98.1526 267.403L100.335 267.14L100.959 267.666L101.582 268.192L102.206 268.455L101.894 269.77L100.647 273.715L98.7762 283.71L98.1526 290.022L97.8408 298.965V308.96L98.1526 315.798L98.7762 319.744Z" stroke="#F5F5F5" stroke-width="0.402004"/>
</svg>
